<?xml version="1.0" encoding="UTF-8"?>
<svg xmlns="http://www.w3.org/2000/svg" viewBox="222 59 35 24" width="500" height="343">
  <title>Pennsylvania state outline</title>
  <path
    fill="#000000"
    stroke="none"
    d="M 251.845,75.622 L 252.191,75.425 L 252.88,75.03 L 253.323,74.193 L 253.815,73.505 L 254.799,72.567 L 254.799,72.32 L 254.061,71.828 L 252.979,71.088 L 252.682,70.301 L 251.844,70.203 L 251.793,69.856 L 251.549,69.019 L 252.238,68.673 L 252.287,67.935 L 251.894,67.541 L 251.943,67.048 L 252.533,66.112 L 252.533,65.176 L 253.248,64.436 L 252.828,64.139 L 252.041,64.091 L 251.352,63.499 L 250.612,61.874 L 249.698,61.591 L 248.989,60.938 L 243.321,62.169 L 230.216,64.829 L 227.507,65.273 L 227.355,63.114 L 225.683,64.829 L 225.29,64.976 L 224.007,65.894 L 224.896,71.727 L 225.41,75.003 L 226.498,80.873 L 227.908,80.644 L 231.551,80.187 L 243.11,77.851 L 247.645,76.991 L 250.172,76.496 L 250.567,76.111 L 251.206,75.62 L 251.845,75.62 Z"
  />
</svg>
